<?xml version="1.0"?>
<svg height="1200" version="1.1" width="1200" xmlns:xlink="http://www.w3.org/1999/xlink" xmlns="http://www.w3.org/2000/svg"><g><rect fill="white" height="100%" width="100%" /><g><g stroke-dasharray="1 1" stroke="#caa"><line x1="94.97" x2="94.97" y1="20.00" y2="500.00" /><line x1="158.86" x2="158.86" y1="20.00" y2="500.00" /><line x1="222.75" x2="222.75" y1="20.00" y2="500.00" /><line x1="286.64" x2="286.64" y1="20.00" y2="500.00" /><line x1="350.53" x2="350.53" y1="20.00" y2="500.00" /><line x1="414.41" x2="414.41" y1="20.00" y2="500.00" /><line x1="478.30" x2="478.30" y1="20.00" y2="500.00" /><line x1="542.19" x2="542.19" y1="20.00" y2="500.00" /><line x1="606.08" x2="606.08" y1="20.00" y2="500.00" /><line x1="669.97" x2="669.97" y1="20.00" y2="500.00" /><line x1="733.86" x2="733.86" y1="20.00" y2="500.00" /><line x1="50.00" x2="790.00" y1="20.00" y2="20.00" /><line x1="50.00" x2="790.00" y1="116.00" y2="116.00" /><line x1="50.00" x2="790.00" y1="212.00" y2="212.00" /><line x1="50.00" x2="790.00" y1="308.00" y2="308.00" /><line x1="50.00" x2="790.00" y1="404.00" y2="404.00" /><line x1="50.00" x2="790.00" y1="500.00" y2="500.00" /></g><g><line stroke="#09F" x1="232.95" x2="450.92" y1="68.00" y2="68.00" /><rect fill="white" height="-38.40" stroke="#09F" width="59.45" x="312.21" y="48.80" /><line stroke-width="4px" stroke="#09F" x1="336.84" x2="336.84" y1="48.80" y2="87.20" /><g><line stroke-width="2px" stroke="#09F" x1="232.95" x2="232.95" y1="58.40" y2="77.60" /><line stroke-width="2px" stroke="#09F" x1="450.92" x2="450.92" y1="58.40" y2="77.60" /></g><g><circle cx="549.99" cy="76.50" fill="white" r="3" stroke="#09F" /><circle cx="470.73" cy="64.35" fill="white" r="3" stroke="#09F" /><circle cx="530.18" cy="65.75" fill="white" r="3" stroke="#09F" /><circle cx="510.36" cy="77.13" fill="white" r="3" stroke="#09F" /><circle cx="530.18" cy="74.42" fill="white" r="3" stroke="#09F" /><circle cx="470.73" cy="70.55" fill="white" r="3" stroke="#09F" /><circle cx="549.99" cy="76.56" fill="white" r="3" stroke="#09F" /><circle cx="470.73" cy="67.16" fill="white" r="3" stroke="#09F" /><circle cx="569.81" cy="66.70" fill="white" r="3" stroke="#09F" /><circle cx="530.18" cy="67.31" fill="white" r="3" stroke="#09F" /><circle cx="510.36" cy="76.66" fill="white" r="3" stroke="#09F" /><circle cx="490.55" cy="65.60" fill="white" r="3" stroke="#09F" /><circle cx="470.73" cy="58.88" fill="white" r="3" stroke="#09F" /><circle cx="470.73" cy="69.33" fill="white" r="3" stroke="#09F" /><circle cx="510.36" cy="68.35" fill="white" r="3" stroke="#09F" /><circle cx="470.73" cy="77.32" fill="white" r="3" stroke="#09F" /><circle cx="549.99" cy="73.67" fill="white" r="3" stroke="#09F" /><circle cx="549.99" cy="71.93" fill="white" r="3" stroke="#09F" /><circle cx="569.81" cy="65.42" fill="white" r="3" stroke="#09F" /><circle cx="470.73" cy="72.26" fill="white" r="3" stroke="#09F" /><circle cx="589.63" cy="66.89" fill="white" r="3" stroke="#09F" /><circle cx="173.50" cy="72.99" fill="white" r="3" stroke="#09F" /><circle cx="213.13" cy="58.53" fill="white" r="3" stroke="#09F" /><circle cx="213.13" cy="64.85" fill="white" r="3" stroke="#09F" /><circle cx="490.55" cy="65.66" fill="white" r="3" stroke="#09F" /><circle cx="530.18" cy="59.40" fill="white" r="3" stroke="#09F" /><circle cx="589.63" cy="74.82" fill="white" r="3" stroke="#09F" /><circle cx="470.73" cy="72.28" fill="white" r="3" stroke="#09F" /><circle cx="589.63" cy="65.26" fill="white" r="3" stroke="#09F" /><circle cx="510.36" cy="67.60" fill="white" r="3" stroke="#09F" /><circle cx="549.99" cy="63.84" fill="white" r="3" stroke="#09F" /><circle cx="490.55" cy="76.59" fill="white" r="3" stroke="#09F" /><circle cx="490.55" cy="70.07" fill="white" r="3" stroke="#09F" /><circle cx="530.18" cy="70.55" fill="white" r="3" stroke="#09F" /><circle cx="668.89" cy="77.06" fill="white" r="3" stroke="#09F" /><circle cx="213.13" cy="64.68" fill="white" r="3" stroke="#09F" /><circle cx="569.81" cy="70.77" fill="white" r="3" stroke="#09F" /><circle cx="530.18" cy="77.60" fill="white" r="3" stroke="#09F" /><circle cx="609.44" cy="67.99" fill="white" r="3" stroke="#09F" /><circle cx="609.44" cy="74.87" fill="white" r="3" stroke="#09F" /><circle cx="510.36" cy="74.44" fill="white" r="3" stroke="#09F" /><circle cx="470.73" cy="77.05" fill="white" r="3" stroke="#09F" /><circle cx="470.73" cy="60.60" fill="white" r="3" stroke="#09F" /><circle cx="589.63" cy="73.71" fill="white" r="3" stroke="#09F" /><circle cx="470.73" cy="69.95" fill="white" r="3" stroke="#09F" /><circle cx="549.99" cy="69.67" fill="white" r="3" stroke="#09F" /><circle cx="510.36" cy="76.13" fill="white" r="3" stroke="#09F" /><circle cx="490.55" cy="74.40" fill="white" r="3" stroke="#09F" /><circle cx="470.73" cy="71.75" fill="white" r="3" stroke="#09F" /><circle cx="510.36" cy="72.46" fill="white" r="3" stroke="#09F" /><circle cx="549.99" cy="66.26" fill="white" r="3" stroke="#09F" /><circle cx="470.73" cy="77.47" fill="white" r="3" stroke="#09F" /><circle cx="530.18" cy="68.11" fill="white" r="3" stroke="#09F" /><circle cx="490.55" cy="75.36" fill="white" r="3" stroke="#09F" /><circle cx="470.73" cy="61.96" fill="white" r="3" stroke="#09F" /><circle cx="470.73" cy="63.03" fill="white" r="3" stroke="#09F" /><circle cx="530.18" cy="69.94" fill="white" r="3" stroke="#09F" /><circle cx="549.99" cy="67.75" fill="white" r="3" stroke="#09F" /><circle cx="470.73" cy="62.96" fill="white" r="3" stroke="#09F" /><circle cx="549.99" cy="70.36" fill="white" r="3" stroke="#09F" /><circle cx="549.99" cy="75.37" fill="white" r="3" stroke="#09F" /><circle cx="470.73" cy="70.53" fill="white" r="3" stroke="#09F" /><circle cx="510.36" cy="69.93" fill="white" r="3" stroke="#09F" /><circle cx="530.18" cy="73.96" fill="white" r="3" stroke="#09F" /><circle cx="569.81" cy="72.23" fill="white" r="3" stroke="#09F" /><circle cx="510.36" cy="74.19" fill="white" r="3" stroke="#09F" /><circle cx="510.36" cy="67.10" fill="white" r="3" stroke="#09F" /><circle cx="549.99" cy="77.22" fill="white" r="3" stroke="#09F" /><circle cx="510.36" cy="62.63" fill="white" r="3" stroke="#09F" /><circle cx="589.63" cy="66.99" fill="white" r="3" stroke="#09F" /><circle cx="530.18" cy="77.22" fill="white" r="3" stroke="#09F" /><circle cx="470.73" cy="61.46" fill="white" r="3" stroke="#09F" /><circle cx="510.36" cy="68.83" fill="white" r="3" stroke="#09F" /><circle cx="470.73" cy="75.24" fill="white" r="3" stroke="#09F" /><circle cx="470.73" cy="60.07" fill="white" r="3" stroke="#09F" /><circle cx="490.55" cy="66.55" fill="white" r="3" stroke="#09F" /><circle cx="490.55" cy="69.89" fill="white" r="3" stroke="#09F" /><circle cx="569.81" cy="59.74" fill="white" r="3" stroke="#09F" /><circle cx="490.55" cy="60.49" fill="white" r="3" stroke="#09F" /><circle cx="490.55" cy="72.49" fill="white" r="3" stroke="#09F" /><circle cx="569.81" cy="75.61" fill="white" r="3" stroke="#09F" /><circle cx="470.73" cy="60.73" fill="white" r="3" stroke="#09F" /><circle cx="728.33" cy="59.76" fill="white" r="3" stroke="#09F" /><circle cx="490.55" cy="70.29" fill="white" r="3" stroke="#09F" /><circle cx="530.18" cy="67.76" fill="white" r="3" stroke="#09F" /><circle cx="490.55" cy="64.40" fill="white" r="3" stroke="#09F" /><circle cx="530.18" cy="73.74" fill="white" r="3" stroke="#09F" /><circle cx="609.44" cy="68.63" fill="white" r="3" stroke="#09F" /><circle cx="490.55" cy="58.44" fill="white" r="3" stroke="#09F" /><circle cx="470.73" cy="76.74" fill="white" r="3" stroke="#09F" /><circle cx="213.13" cy="63.98" fill="white" r="3" stroke="#09F" /><circle cx="213.13" cy="63.90" fill="white" r="3" stroke="#09F" /><circle cx="549.99" cy="71.23" fill="white" r="3" stroke="#09F" /><circle cx="490.55" cy="70.77" fill="white" r="3" stroke="#09F" /><circle cx="470.73" cy="62.07" fill="white" r="3" stroke="#09F" /><circle cx="549.99" cy="73.22" fill="white" r="3" stroke="#09F" /><circle cx="490.55" cy="76.71" fill="white" r="3" stroke="#09F" /><circle cx="490.55" cy="67.11" fill="white" r="3" stroke="#09F" /><circle cx="530.18" cy="77.46" fill="white" r="3" stroke="#09F" /><circle cx="510.36" cy="77.46" fill="white" r="3" stroke="#09F" /><circle cx="530.18" cy="58.92" fill="white" r="3" stroke="#09F" /><circle cx="470.73" cy="60.59" fill="white" r="3" stroke="#09F" /><circle cx="490.55" cy="72.30" fill="white" r="3" stroke="#09F" /><circle cx="510.36" cy="65.28" fill="white" r="3" stroke="#09F" /><circle cx="510.36" cy="71.72" fill="white" r="3" stroke="#09F" /><circle cx="490.55" cy="64.69" fill="white" r="3" stroke="#09F" /><circle cx="569.81" cy="65.14" fill="white" r="3" stroke="#09F" /><circle cx="530.18" cy="62.79" fill="white" r="3" stroke="#09F" /><circle cx="490.55" cy="71.63" fill="white" r="3" stroke="#09F" /><circle cx="470.73" cy="59.50" fill="white" r="3" stroke="#09F" /><circle cx="510.36" cy="76.30" fill="white" r="3" stroke="#09F" /><circle cx="510.36" cy="74.17" fill="white" r="3" stroke="#09F" /><circle cx="530.18" cy="65.42" fill="white" r="3" stroke="#09F" /><circle cx="490.55" cy="76.28" fill="white" r="3" stroke="#09F" /><circle cx="530.18" cy="72.47" fill="white" r="3" stroke="#09F" /><circle cx="569.81" cy="73.49" fill="white" r="3" stroke="#09F" /><circle cx="609.44" cy="72.48" fill="white" r="3" stroke="#09F" /><circle cx="589.63" cy="73.60" fill="white" r="3" stroke="#09F" /><circle cx="609.44" cy="77.60" fill="white" r="3" stroke="#09F" /><circle cx="470.73" cy="60.04" fill="white" r="3" stroke="#09F" /><circle cx="470.73" cy="70.58" fill="white" r="3" stroke="#09F" /><circle cx="470.73" cy="75.31" fill="white" r="3" stroke="#09F" /><circle cx="193.32" cy="76.69" fill="white" r="3" stroke="#09F" /><circle cx="213.13" cy="62.35" fill="white" r="3" stroke="#09F" /><circle cx="490.55" cy="67.29" fill="white" r="3" stroke="#09F" /><circle cx="510.36" cy="63.16" fill="white" r="3" stroke="#09F" /><circle cx="490.55" cy="72.39" fill="white" r="3" stroke="#09F" /><circle cx="549.99" cy="62.57" fill="white" r="3" stroke="#09F" /><circle cx="490.55" cy="64.89" fill="white" r="3" stroke="#09F" /><circle cx="490.55" cy="70.29" fill="white" r="3" stroke="#09F" /><circle cx="549.99" cy="69.19" fill="white" r="3" stroke="#09F" /><circle cx="549.99" cy="73.78" fill="white" r="3" stroke="#09F" /><circle cx="470.73" cy="76.85" fill="white" r="3" stroke="#09F" /><circle cx="490.55" cy="62.86" fill="white" r="3" stroke="#09F" /><circle cx="490.55" cy="65.09" fill="white" r="3" stroke="#09F" /><circle cx="569.81" cy="59.12" fill="white" r="3" stroke="#09F" /><circle cx="490.55" cy="69.36" fill="white" r="3" stroke="#09F" /><circle cx="490.55" cy="77.51" fill="white" r="3" stroke="#09F" /><circle cx="213.13" cy="77.02" fill="white" r="3" stroke="#09F" /><circle cx="213.13" cy="68.34" fill="white" r="3" stroke="#09F" /><circle cx="213.13" cy="66.42" fill="white" r="3" stroke="#09F" /><circle cx="470.73" cy="73.32" fill="white" r="3" stroke="#09F" /><circle cx="490.55" cy="64.69" fill="white" r="3" stroke="#09F" /><circle cx="530.18" cy="62.92" fill="white" r="3" stroke="#09F" /><circle cx="688.70" cy="59.51" fill="white" r="3" stroke="#09F" /><circle cx="213.13" cy="71.44" fill="white" r="3" stroke="#09F" /><circle cx="470.73" cy="76.17" fill="white" r="3" stroke="#09F" /><circle cx="510.36" cy="70.79" fill="white" r="3" stroke="#09F" /><circle cx="470.73" cy="67.07" fill="white" r="3" stroke="#09F" /><circle cx="490.55" cy="73.17" fill="white" r="3" stroke="#09F" /><circle cx="530.18" cy="60.53" fill="white" r="3" stroke="#09F" /><circle cx="490.55" cy="65.48" fill="white" r="3" stroke="#09F" /><circle cx="549.99" cy="66.52" fill="white" r="3" stroke="#09F" /><circle cx="569.81" cy="77.53" fill="white" r="3" stroke="#09F" /><circle cx="470.73" cy="71.34" fill="white" r="3" stroke="#09F" /><circle cx="569.81" cy="61.14" fill="white" r="3" stroke="#09F" /><circle cx="649.07" cy="66.33" fill="white" r="3" stroke="#09F" /><circle cx="530.18" cy="74.07" fill="white" r="3" stroke="#09F" /><circle cx="510.36" cy="66.94" fill="white" r="3" stroke="#09F" /><circle cx="470.73" cy="75.45" fill="white" r="3" stroke="#09F" /><circle cx="688.70" cy="71.98" fill="white" r="3" stroke="#09F" /><circle cx="510.36" cy="67.90" fill="white" r="3" stroke="#09F" /><circle cx="490.55" cy="73.98" fill="white" r="3" stroke="#09F" /><circle cx="490.55" cy="59.98" fill="white" r="3" stroke="#09F" /><circle cx="490.55" cy="65.98" fill="white" r="3" stroke="#09F" /><circle cx="490.55" cy="59.13" fill="white" r="3" stroke="#09F" /><circle cx="490.55" cy="72.12" fill="white" r="3" stroke="#09F" /><circle cx="490.55" cy="59.79" fill="white" r="3" stroke="#09F" /><circle cx="510.36" cy="63.05" fill="white" r="3" stroke="#09F" /><circle cx="549.99" cy="64.73" fill="white" r="3" stroke="#09F" /><circle cx="530.18" cy="70.70" fill="white" r="3" stroke="#09F" /><circle cx="609.44" cy="67.73" fill="white" r="3" stroke="#09F" /><circle cx="470.73" cy="66.70" fill="white" r="3" stroke="#09F" /><circle cx="470.73" cy="63.06" fill="white" r="3" stroke="#09F" /><circle cx="490.55" cy="67.14" fill="white" r="3" stroke="#09F" /><circle cx="490.55" cy="68.24" fill="white" r="3" stroke="#09F" /><circle cx="609.44" cy="72.53" fill="white" r="3" stroke="#09F" /><circle cx="609.44" cy="63.74" fill="white" r="3" stroke="#09F" /><circle cx="510.36" cy="69.37" fill="white" r="3" stroke="#09F" /><circle cx="490.55" cy="69.01" fill="white" r="3" stroke="#09F" /><circle cx="490.55" cy="60.83" fill="white" r="3" stroke="#09F" /><circle cx="569.81" cy="71.52" fill="white" r="3" stroke="#09F" /><circle cx="490.55" cy="76.86" fill="white" r="3" stroke="#09F" /><circle cx="470.73" cy="68.52" fill="white" r="3" stroke="#09F" /><circle cx="530.18" cy="61.75" fill="white" r="3" stroke="#09F" /><circle cx="510.36" cy="77.04" fill="white" r="3" stroke="#09F" /><circle cx="490.55" cy="74.78" fill="white" r="3" stroke="#09F" /><circle cx="490.55" cy="59.34" fill="white" r="3" stroke="#09F" /><circle cx="549.99" cy="71.14" fill="white" r="3" stroke="#09F" /><circle cx="510.36" cy="64.91" fill="white" r="3" stroke="#09F" /><circle cx="510.36" cy="71.00" fill="white" r="3" stroke="#09F" /><circle cx="530.18" cy="70.93" fill="white" r="3" stroke="#09F" /><circle cx="470.73" cy="75.62" fill="white" r="3" stroke="#09F" /><circle cx="213.13" cy="70.97" fill="white" r="3" stroke="#09F" /><circle cx="470.73" cy="71.58" fill="white" r="3" stroke="#09F" /><circle cx="470.73" cy="65.42" fill="white" r="3" stroke="#09F" /><circle cx="490.55" cy="76.96" fill="white" r="3" stroke="#09F" /><circle cx="490.55" cy="66.63" fill="white" r="3" stroke="#09F" /><circle cx="470.73" cy="70.75" fill="white" r="3" stroke="#09F" /><circle cx="510.36" cy="60.07" fill="white" r="3" stroke="#09F" /><circle cx="510.36" cy="76.52" fill="white" r="3" stroke="#09F" /><circle cx="510.36" cy="69.23" fill="white" r="3" stroke="#09F" /><circle cx="470.73" cy="68.15" fill="white" r="3" stroke="#09F" /><circle cx="470.73" cy="68.25" fill="white" r="3" stroke="#09F" /><circle cx="609.44" cy="67.29" fill="white" r="3" stroke="#09F" /><circle cx="470.73" cy="69.91" fill="white" r="3" stroke="#09F" /><circle cx="549.99" cy="70.05" fill="white" r="3" stroke="#09F" /><circle cx="490.55" cy="72.45" fill="white" r="3" stroke="#09F" /><circle cx="470.73" cy="68.86" fill="white" r="3" stroke="#09F" /><circle cx="549.99" cy="72.40" fill="white" r="3" stroke="#09F" /><circle cx="510.36" cy="77.29" fill="white" r="3" stroke="#09F" /><circle cx="530.18" cy="59.42" fill="white" r="3" stroke="#09F" /><circle cx="213.13" cy="71.60" fill="white" r="3" stroke="#09F" /><circle cx="549.99" cy="77.49" fill="white" r="3" stroke="#09F" /><circle cx="629.26" cy="77.19" fill="white" r="3" stroke="#09F" /><circle cx="569.81" cy="62.51" fill="white" r="3" stroke="#09F" /><circle cx="510.36" cy="64.90" fill="white" r="3" stroke="#09F" /><circle cx="470.73" cy="73.55" fill="white" r="3" stroke="#09F" /><circle cx="549.99" cy="58.74" fill="white" r="3" stroke="#09F" /><circle cx="510.36" cy="72.69" fill="white" r="3" stroke="#09F" /><circle cx="490.55" cy="72.07" fill="white" r="3" stroke="#09F" /><circle cx="490.55" cy="61.11" fill="white" r="3" stroke="#09F" /><circle cx="470.73" cy="59.18" fill="white" r="3" stroke="#09F" /><circle cx="470.73" cy="58.85" fill="white" r="3" stroke="#09F" /><circle cx="510.36" cy="71.70" fill="white" r="3" stroke="#09F" /><circle cx="470.73" cy="61.00" fill="white" r="3" stroke="#09F" /><circle cx="510.36" cy="73.79" fill="white" r="3" stroke="#09F" /><circle cx="530.18" cy="66.02" fill="white" r="3" stroke="#09F" /><circle cx="510.36" cy="60.81" fill="white" r="3" stroke="#09F" /><circle cx="490.55" cy="65.58" fill="white" r="3" stroke="#09F" /><circle cx="490.55" cy="65.65" fill="white" r="3" stroke="#09F" /><circle cx="510.36" cy="71.03" fill="white" r="3" stroke="#09F" /><circle cx="510.36" cy="62.57" fill="white" r="3" stroke="#09F" /><circle cx="629.26" cy="67.33" fill="white" r="3" stroke="#09F" /><circle cx="490.55" cy="72.14" fill="white" r="3" stroke="#09F" /><circle cx="470.73" cy="62.52" fill="white" r="3" stroke="#09F" /><circle cx="470.73" cy="59.40" fill="white" r="3" stroke="#09F" /><circle cx="470.73" cy="62.64" fill="white" r="3" stroke="#09F" /><circle cx="470.73" cy="74.79" fill="white" r="3" stroke="#09F" /><circle cx="490.55" cy="66.22" fill="white" r="3" stroke="#09F" /><circle cx="470.73" cy="64.84" fill="white" r="3" stroke="#09F" /><circle cx="530.18" cy="69.16" fill="white" r="3" stroke="#09F" /><circle cx="470.73" cy="70.06" fill="white" r="3" stroke="#09F" /><circle cx="470.73" cy="70.31" fill="white" r="3" stroke="#09F" /><circle cx="470.73" cy="66.56" fill="white" r="3" stroke="#09F" /><circle cx="490.55" cy="77.02" fill="white" r="3" stroke="#09F" /><circle cx="549.99" cy="58.89" fill="white" r="3" stroke="#09F" /><circle cx="530.18" cy="61.67" fill="white" r="3" stroke="#09F" /><circle cx="490.55" cy="68.36" fill="white" r="3" stroke="#09F" /><circle cx="490.55" cy="75.23" fill="white" r="3" stroke="#09F" /><circle cx="470.73" cy="72.93" fill="white" r="3" stroke="#09F" /><circle cx="530.18" cy="64.94" fill="white" r="3" stroke="#09F" /><circle cx="530.18" cy="68.27" fill="white" r="3" stroke="#09F" /><circle cx="510.36" cy="65.24" fill="white" r="3" stroke="#09F" /><circle cx="470.73" cy="71.14" fill="white" r="3" stroke="#09F" /><circle cx="530.18" cy="66.59" fill="white" r="3" stroke="#09F" /><circle cx="510.36" cy="68.57" fill="white" r="3" stroke="#09F" /><circle cx="510.36" cy="63.28" fill="white" r="3" stroke="#09F" /><circle cx="213.13" cy="69.11" fill="white" r="3" stroke="#09F" /><circle cx="213.13" cy="63.19" fill="white" r="3" stroke="#09F" /><circle cx="213.13" cy="66.48" fill="white" r="3" stroke="#09F" /><circle cx="470.73" cy="59.83" fill="white" r="3" stroke="#09F" /><circle cx="470.73" cy="73.70" fill="white" r="3" stroke="#09F" /><circle cx="510.36" cy="63.62" fill="white" r="3" stroke="#09F" /><circle cx="530.18" cy="73.62" fill="white" r="3" stroke="#09F" /><circle cx="470.73" cy="74.48" fill="white" r="3" stroke="#09F" /><circle cx="470.73" cy="72.20" fill="white" r="3" stroke="#09F" /><circle cx="490.55" cy="63.04" fill="white" r="3" stroke="#09F" /><circle cx="470.73" cy="59.00" fill="white" r="3" stroke="#09F" /><circle cx="470.73" cy="69.06" fill="white" r="3" stroke="#09F" /><circle cx="530.18" cy="67.02" fill="white" r="3" stroke="#09F" /><circle cx="510.36" cy="60.93" fill="white" r="3" stroke="#09F" /><circle cx="549.99" cy="72.58" fill="white" r="3" stroke="#09F" /><circle cx="470.73" cy="58.74" fill="white" r="3" stroke="#09F" /><circle cx="569.81" cy="68.32" fill="white" r="3" stroke="#09F" /><circle cx="490.55" cy="61.13" fill="white" r="3" stroke="#09F" /><circle cx="549.99" cy="71.02" fill="white" r="3" stroke="#09F" /><circle cx="470.73" cy="62.61" fill="white" r="3" stroke="#09F" /></g></g><g><line stroke="#09F" x1="241.60" x2="527.76" y1="164.00" y2="164.00" /><rect fill="white" height="-38.40" stroke="#09F" width="91.25" x="300.61" y="144.80" /><line stroke-width="4px" stroke="#09F" x1="348.10" x2="348.10" y1="144.80" y2="183.20" /><g><line stroke-width="2px" stroke="#09F" x1="241.60" x2="241.60" y1="154.40" y2="173.60" /><line stroke-width="2px" stroke="#09F" x1="527.76" x2="527.76" y1="154.40" y2="173.60" /></g><g><circle cx="550.71" cy="173.38" fill="white" r="3" stroke="#09F" /><circle cx="598.90" cy="165.06" fill="white" r="3" stroke="#09F" /><circle cx="532.35" cy="168.46" fill="white" r="3" stroke="#09F" /><circle cx="702.17" cy="173.21" fill="white" r="3" stroke="#09F" /><circle cx="614.96" cy="162.17" fill="white" r="3" stroke="#09F" /><circle cx="573.66" cy="162.37" fill="white" r="3" stroke="#09F" /><circle cx="631.03" cy="160.89" fill="white" r="3" stroke="#09F" /><circle cx="539.24" cy="157.23" fill="white" r="3" stroke="#09F" /><circle cx="589.72" cy="168.89" fill="white" r="3" stroke="#09F" /><circle cx="557.59" cy="158.63" fill="white" r="3" stroke="#09F" /><circle cx="566.77" cy="172.42" fill="white" r="3" stroke="#09F" /><circle cx="562.18" cy="157.70" fill="white" r="3" stroke="#09F" /><circle cx="652.60" cy="154.67" fill="white" r="3" stroke="#09F" /><circle cx="533.73" cy="157.95" fill="white" r="3" stroke="#09F" /><circle cx="552.32" cy="164.84" fill="white" r="3" stroke="#09F" /><circle cx="606.93" cy="171.09" fill="white" r="3" stroke="#09F" /><circle cx="530.06" cy="161.71" fill="white" r="3" stroke="#09F" /><circle cx="535.56" cy="155.04" fill="white" r="3" stroke="#09F" /><circle cx="536.02" cy="158.77" fill="white" r="3" stroke="#09F" /><circle cx="537.40" cy="169.32" fill="white" r="3" stroke="#09F" /><circle cx="543.14" cy="160.92" fill="white" r="3" stroke="#09F" /><circle cx="647.09" cy="170.33" fill="white" r="3" stroke="#09F" /><circle cx="573.66" cy="168.90" fill="white" r="3" stroke="#09F" /><circle cx="647.09" cy="168.28" fill="white" r="3" stroke="#09F" /><circle cx="546.12" cy="173.22" fill="white" r="3" stroke="#09F" /><circle cx="555.30" cy="173.01" fill="white" r="3" stroke="#09F" /><circle cx="543.83" cy="173.32" fill="white" r="3" stroke="#09F" /><circle cx="574.12" cy="154.52" fill="white" r="3" stroke="#09F" /><circle cx="555.53" cy="167.07" fill="white" r="3" stroke="#09F" /><circle cx="566.77" cy="157.45" fill="white" r="3" stroke="#09F" /><circle cx="573.66" cy="157.24" fill="white" r="3" stroke="#09F" /><circle cx="546.12" cy="173.18" fill="white" r="3" stroke="#09F" /><circle cx="550.48" cy="156.68" fill="white" r="3" stroke="#09F" /><circle cx="541.53" cy="154.98" fill="white" r="3" stroke="#09F" /><circle cx="542.45" cy="162.52" fill="white" r="3" stroke="#09F" /></g></g><g><line stroke="#09F" x1="187.73" x2="506.40" y1="260.00" y2="260.00" /><rect fill="white" height="-38.40" stroke="#09F" width="83.69" x="313.26" y="240.80" /><line stroke-width="4px" stroke="#09F" x1="361.55" x2="361.55" y1="240.80" y2="279.20" /><g><line stroke-width="2px" stroke="#09F" x1="187.73" x2="187.73" y1="250.40" y2="269.60" /><line stroke-width="2px" stroke="#09F" x1="506.40" x2="506.40" y1="250.40" y2="269.60" /></g><g><circle cx="184.51" cy="265.64" fill="white" r="3" stroke="#09F" /><circle cx="184.51" cy="259.48" fill="white" r="3" stroke="#09F" /><circle cx="171.63" cy="268.39" fill="white" r="3" stroke="#09F" /><circle cx="171.63" cy="257.46" fill="white" r="3" stroke="#09F" /><circle cx="123.35" cy="263.42" fill="white" r="3" stroke="#09F" /><circle cx="152.32" cy="254.89" fill="white" r="3" stroke="#09F" /><circle cx="145.88" cy="259.26" fill="white" r="3" stroke="#09F" /><circle cx="165.20" cy="264.71" fill="white" r="3" stroke="#09F" /><circle cx="181.29" cy="254.43" fill="white" r="3" stroke="#09F" /><circle cx="165.20" cy="260.11" fill="white" r="3" stroke="#09F" /><circle cx="181.29" cy="255.57" fill="white" r="3" stroke="#09F" /><circle cx="168.41" cy="252.76" fill="white" r="3" stroke="#09F" /><circle cx="184.51" cy="267.63" fill="white" r="3" stroke="#09F" /><circle cx="178.07" cy="268.11" fill="white" r="3" stroke="#09F" /><circle cx="168.41" cy="252.65" fill="white" r="3" stroke="#09F" /><circle cx="158.76" cy="255.98" fill="white" r="3" stroke="#09F" /><circle cx="181.29" cy="263.30" fill="white" r="3" stroke="#09F" /><circle cx="158.76" cy="261.43" fill="white" r="3" stroke="#09F" /><circle cx="155.54" cy="252.33" fill="white" r="3" stroke="#09F" /><circle cx="168.41" cy="251.90" fill="white" r="3" stroke="#09F" /><circle cx="152.32" cy="266.97" fill="white" r="3" stroke="#09F" /><circle cx="158.76" cy="255.55" fill="white" r="3" stroke="#09F" /><circle cx="178.07" cy="261.95" fill="white" r="3" stroke="#09F" /><circle cx="165.20" cy="259.69" fill="white" r="3" stroke="#09F" /><circle cx="171.63" cy="265.37" fill="white" r="3" stroke="#09F" /><circle cx="184.51" cy="266.79" fill="white" r="3" stroke="#09F" /><circle cx="174.85" cy="266.73" fill="white" r="3" stroke="#09F" /><circle cx="155.54" cy="255.66" fill="white" r="3" stroke="#09F" /><circle cx="174.85" cy="253.11" fill="white" r="3" stroke="#09F" /><circle cx="171.63" cy="252.67" fill="white" r="3" stroke="#09F" /><circle cx="158.76" cy="261.67" fill="white" r="3" stroke="#09F" /><circle cx="184.51" cy="254.59" fill="white" r="3" stroke="#09F" /><circle cx="149.10" cy="256.92" fill="white" r="3" stroke="#09F" /><circle cx="171.63" cy="266.40" fill="white" r="3" stroke="#09F" /><circle cx="161.98" cy="268.49" fill="white" r="3" stroke="#09F" /><circle cx="171.63" cy="251.53" fill="white" r="3" stroke="#09F" /><circle cx="184.51" cy="266.47" fill="white" r="3" stroke="#09F" /><circle cx="168.41" cy="269.34" fill="white" r="3" stroke="#09F" /><circle cx="168.41" cy="258.62" fill="white" r="3" stroke="#09F" /><circle cx="174.85" cy="250.78" fill="white" r="3" stroke="#09F" /><circle cx="161.98" cy="267.94" fill="white" r="3" stroke="#09F" /><circle cx="181.29" cy="250.73" fill="white" r="3" stroke="#09F" /><circle cx="184.51" cy="264.45" fill="white" r="3" stroke="#09F" /><circle cx="178.07" cy="255.42" fill="white" r="3" stroke="#09F" /><circle cx="184.51" cy="260.12" fill="white" r="3" stroke="#09F" /><circle cx="174.85" cy="269.49" fill="white" r="3" stroke="#09F" /><circle cx="184.51" cy="269.15" fill="white" r="3" stroke="#09F" /><circle cx="181.29" cy="252.30" fill="white" r="3" stroke="#09F" /><circle cx="168.41" cy="268.79" fill="white" r="3" stroke="#09F" /><circle cx="171.63" cy="253.33" fill="white" r="3" stroke="#09F" /><circle cx="165.20" cy="252.50" fill="white" r="3" stroke="#09F" /><circle cx="184.51" cy="251.98" fill="white" r="3" stroke="#09F" /><circle cx="184.51" cy="254.80" fill="white" r="3" stroke="#09F" /><circle cx="168.41" cy="250.81" fill="white" r="3" stroke="#09F" /><circle cx="171.63" cy="254.59" fill="white" r="3" stroke="#09F" /><circle cx="155.54" cy="253.08" fill="white" r="3" stroke="#09F" /><circle cx="155.54" cy="257.71" fill="white" r="3" stroke="#09F" /><circle cx="165.20" cy="260.56" fill="white" r="3" stroke="#09F" /><circle cx="174.85" cy="265.28" fill="white" r="3" stroke="#09F" /></g></g><g><line stroke="#09F" x1="194.18" x2="517.86" y1="356.00" y2="356.00" /><rect fill="white" height="-38.40" stroke="#09F" width="83.00" x="310.37" y="336.80" /><line stroke-width="4px" stroke="#09F" x1="351.87" x2="351.87" y1="336.80" y2="375.20" /><g><line stroke-width="2px" stroke="#09F" x1="194.18" x2="194.18" y1="346.40" y2="365.60" /><line stroke-width="2px" stroke="#09F" x1="517.86" x2="517.86" y1="346.40" y2="365.60" /></g><g><circle cx="119.49" cy="364.44" fill="white" r="3" stroke="#09F" /><circle cx="119.49" cy="347.31" fill="white" r="3" stroke="#09F" /><circle cx="136.08" cy="365.25" fill="white" r="3" stroke="#09F" /><circle cx="144.38" cy="348.88" fill="white" r="3" stroke="#09F" /><circle cx="144.38" cy="354.92" fill="white" r="3" stroke="#09F" /><circle cx="152.68" cy="348.18" fill="white" r="3" stroke="#09F" /><circle cx="152.68" cy="358.86" fill="white" r="3" stroke="#09F" /><circle cx="160.98" cy="364.77" fill="white" r="3" stroke="#09F" /><circle cx="160.98" cy="351.07" fill="white" r="3" stroke="#09F" /><circle cx="160.98" cy="359.95" fill="white" r="3" stroke="#09F" /><circle cx="160.98" cy="363.54" fill="white" r="3" stroke="#09F" /><circle cx="160.98" cy="363.37" fill="white" r="3" stroke="#09F" /><circle cx="169.28" cy="361.24" fill="white" r="3" stroke="#09F" /><circle cx="169.28" cy="363.13" fill="white" r="3" stroke="#09F" /><circle cx="169.28" cy="352.17" fill="white" r="3" stroke="#09F" /><circle cx="169.28" cy="347.92" fill="white" r="3" stroke="#09F" /><circle cx="169.28" cy="362.39" fill="white" r="3" stroke="#09F" /><circle cx="169.28" cy="354.26" fill="white" r="3" stroke="#09F" /><circle cx="177.58" cy="349.46" fill="white" r="3" stroke="#09F" /><circle cx="177.58" cy="352.16" fill="white" r="3" stroke="#09F" /><circle cx="177.58" cy="346.41" fill="white" r="3" stroke="#09F" /><circle cx="177.58" cy="358.29" fill="white" r="3" stroke="#09F" /><circle cx="177.58" cy="362.59" fill="white" r="3" stroke="#09F" /><circle cx="177.58" cy="358.83" fill="white" r="3" stroke="#09F" /><circle cx="185.88" cy="357.19" fill="white" r="3" stroke="#09F" /><circle cx="185.88" cy="347.12" fill="white" r="3" stroke="#09F" /><circle cx="185.88" cy="350.91" fill="white" r="3" stroke="#09F" /><circle cx="185.88" cy="349.51" fill="white" r="3" stroke="#09F" /><circle cx="185.88" cy="354.67" fill="white" r="3" stroke="#09F" /><circle cx="185.88" cy="362.38" fill="white" r="3" stroke="#09F" /><circle cx="185.88" cy="350.75" fill="white" r="3" stroke="#09F" /><circle cx="185.88" cy="353.18" fill="white" r="3" stroke="#09F" /><circle cx="185.88" cy="351.15" fill="white" r="3" stroke="#09F" /><circle cx="185.88" cy="346.66" fill="white" r="3" stroke="#09F" /><circle cx="185.88" cy="357.59" fill="white" r="3" stroke="#09F" /><circle cx="185.88" cy="361.86" fill="white" r="3" stroke="#09F" /><circle cx="185.88" cy="353.75" fill="white" r="3" stroke="#09F" /><circle cx="534.46" cy="362.90" fill="white" r="3" stroke="#09F" /><circle cx="534.46" cy="347.52" fill="white" r="3" stroke="#09F" /><circle cx="534.46" cy="349.71" fill="white" r="3" stroke="#09F" /></g></g><g><line stroke="#09F" x1="180.83" x2="505.34" y1="452.00" y2="452.00" /><rect fill="white" height="-38.40" stroke="#09F" width="87.78" x="311.16" y="432.80" /><line stroke-width="4px" stroke="#09F" x1="361.70" x2="361.70" y1="432.80" y2="471.20" /><g><line stroke-width="2px" stroke="#09F" x1="180.83" x2="180.83" y1="442.40" y2="461.60" /><line stroke-width="2px" stroke="#09F" x1="505.34" x2="505.34" y1="442.40" y2="461.60" /></g><g><circle cx="164.87" cy="461.25" fill="white" r="3" stroke="#09F" /><circle cx="162.21" cy="457.43" fill="white" r="3" stroke="#09F" /><circle cx="111.67" cy="453.95" fill="white" r="3" stroke="#09F" /><circle cx="140.93" cy="444.30" fill="white" r="3" stroke="#09F" /><circle cx="130.29" cy="450.18" fill="white" r="3" stroke="#09F" /><circle cx="156.89" cy="447.71" fill="white" r="3" stroke="#09F" /><circle cx="178.17" cy="456.71" fill="white" r="3" stroke="#09F" /><circle cx="159.55" cy="460.77" fill="white" r="3" stroke="#09F" /><circle cx="172.85" cy="452.42" fill="white" r="3" stroke="#09F" /><circle cx="164.87" cy="453.89" fill="white" r="3" stroke="#09F" /><circle cx="178.17" cy="460.39" fill="white" r="3" stroke="#09F" /><circle cx="164.87" cy="456.13" fill="white" r="3" stroke="#09F" /><circle cx="154.23" cy="446.53" fill="white" r="3" stroke="#09F" /><circle cx="175.51" cy="450.91" fill="white" r="3" stroke="#09F" /><circle cx="159.55" cy="452.24" fill="white" r="3" stroke="#09F" /><circle cx="154.23" cy="457.54" fill="white" r="3" stroke="#09F" /><circle cx="167.53" cy="447.15" fill="white" r="3" stroke="#09F" /><circle cx="151.57" cy="443.60" fill="white" r="3" stroke="#09F" /><circle cx="156.89" cy="448.98" fill="white" r="3" stroke="#09F" /><circle cx="170.19" cy="448.61" fill="white" r="3" stroke="#09F" /><circle cx="175.51" cy="446.82" fill="white" r="3" stroke="#09F" /><circle cx="175.51" cy="443.89" fill="white" r="3" stroke="#09F" /><circle cx="178.17" cy="458.54" fill="white" r="3" stroke="#09F" /><circle cx="170.19" cy="444.47" fill="white" r="3" stroke="#09F" /><circle cx="146.25" cy="459.91" fill="white" r="3" stroke="#09F" /><circle cx="170.19" cy="454.29" fill="white" r="3" stroke="#09F" /><circle cx="143.59" cy="442.67" fill="white" r="3" stroke="#09F" /><circle cx="156.89" cy="444.08" fill="white" r="3" stroke="#09F" /><circle cx="140.93" cy="447.89" fill="white" r="3" stroke="#09F" /><circle cx="167.53" cy="450.23" fill="white" r="3" stroke="#09F" /><circle cx="159.55" cy="454.10" fill="white" r="3" stroke="#09F" /><circle cx="172.85" cy="449.54" fill="white" r="3" stroke="#09F" /><circle cx="162.21" cy="445.69" fill="white" r="3" stroke="#09F" /><circle cx="167.53" cy="460.73" fill="white" r="3" stroke="#09F" /><circle cx="164.87" cy="443.50" fill="white" r="3" stroke="#09F" /><circle cx="154.23" cy="454.26" fill="white" r="3" stroke="#09F" /><circle cx="178.17" cy="459.78" fill="white" r="3" stroke="#09F" /><circle cx="172.85" cy="447.07" fill="white" r="3" stroke="#09F" /><circle cx="167.53" cy="461.58" fill="white" r="3" stroke="#09F" /><circle cx="178.17" cy="457.02" fill="white" r="3" stroke="#09F" /><circle cx="178.17" cy="454.21" fill="white" r="3" stroke="#09F" /><circle cx="159.55" cy="461.60" fill="white" r="3" stroke="#09F" /><circle cx="172.85" cy="452.30" fill="white" r="3" stroke="#09F" /><circle cx="159.55" cy="447.14" fill="white" r="3" stroke="#09F" /><circle cx="164.87" cy="446.54" fill="white" r="3" stroke="#09F" /><circle cx="162.21" cy="442.82" fill="white" r="3" stroke="#09F" /><circle cx="146.25" cy="460.31" fill="white" r="3" stroke="#09F" /><circle cx="156.89" cy="446.09" fill="white" r="3" stroke="#09F" /><circle cx="170.19" cy="457.54" fill="white" r="3" stroke="#09F" /></g></g><g stroke="black"><line x1="94.97" x2="94.97" y1="500.00" y2="510.00" /><line x1="158.86" x2="158.86" y1="500.00" y2="510.00" /><line x1="222.75" x2="222.75" y1="500.00" y2="510.00" /><line x1="286.64" x2="286.64" y1="500.00" y2="510.00" /><line x1="350.53" x2="350.53" y1="500.00" y2="510.00" /><line x1="414.41" x2="414.41" y1="500.00" y2="510.00" /><line x1="478.30" x2="478.30" y1="500.00" y2="510.00" /><line x1="542.19" x2="542.19" y1="500.00" y2="510.00" /><line x1="606.08" x2="606.08" y1="500.00" y2="510.00" /><line x1="669.97" x2="669.97" y1="500.00" y2="510.00" /><line x1="733.86" x2="733.86" y1="500.00" y2="510.00" /><g fill="black" font-family="Arial, sans-serif" font-size="10" stroke="none" text-anchor="middle"><text x="94.97" y="520.00">-4.00</text><text x="158.86" y="520.00">-3.00</text><text x="222.75" y="520.00">-2.00</text><text x="286.64" y="520.00">-1.00</text><text x="350.53" y="520.00">0.00</text><text x="414.41" y="520.00">1.00</text><text x="478.30" y="520.00">2.00</text><text x="542.19" y="520.00">3.00</text><text x="606.08" y="520.00">4.00</text><text x="669.97" y="520.00">5.00</text><text x="733.86" y="520.00">6.00</text></g><line x1="50.00" x2="790.00" y1="500.00" y2="500.00" /></g><g stroke="black"><line x1="50.00" x2="40.00" y1="20.00" y2="20.00" /><line x1="50.00" x2="40.00" y1="116.00" y2="116.00" /><line x1="50.00" x2="40.00" y1="212.00" y2="212.00" /><line x1="50.00" x2="40.00" y1="308.00" y2="308.00" /><line x1="50.00" x2="40.00" y1="404.00" y2="404.00" /><line x1="50.00" x2="40.00" y1="500.00" y2="500.00" /><g fill="black" font-family="Arial, sans-serif" font-size="10" stroke="none" text-anchor="middle"></g><line x1="50.00" x2="50.00" y1="20.00" y2="500.00" /></g></g></g></svg>